<?xml version="1.0" standalone="no"?>
<!DOCTYPE svg PUBLIC "-//W3C//DTD SVG 20010904//EN"
 "http://www.w3.org/TR/2001/REC-SVG-20010904/DTD/svg10.dtd">
<svg version="1.0" xmlns="http://www.w3.org/2000/svg"
 width="936.000000pt" height="936.000000pt" viewBox="0 0 936.000000 936.000000"
 preserveAspectRatio="xMidYMid meet">
<metadata>
Created by potrace 1.11, written by Peter Selinger 2001-2013
</metadata>
<g transform="translate(0.000000,936.000000) scale(0.100000,-0.100000)"
fill="#000000" stroke="none">
<path d="M1742 8962 c-57 -213 -103 -392 -102 -399 0 -6 7 -19 16 -27 24 -25
284 -23 340 3 65 30 98 79 129 194 15 56 33 113 40 128 16 31 54 49 102 49 29
0 34 -3 28 -17 -12 -32 -85 -311 -85 -327 0 -8 7 -22 16 -30 13 -14 49 -16
233 -16 l218 0 -11 35 -11 35 -137 0 c-134 0 -138 1 -153 24 -14 21 -14 30 5
102 45 172 63 194 154 194 70 0 87 -26 65 -102 l-10 -38 -78 0 c-75 0 -91 -6
-91 -36 0 -2 61 -4 135 -4 129 0 135 1 149 23 18 28 39 124 35 157 -5 33 -29
37 -207 39 -136 1 -144 0 -149 -19 -4 -13 -14 -20 -31 -20 -20 0 -23 3 -14 12
7 7 12 16 12 21 0 15 -146 2 -173 -16 -22 -14 -26 -14 -40 0 -10 11 -34 16
-70 16 -91 0 -157 -56 -157 -133 0 -32 30 -70 54 -70 23 0 26 -13 14 -58 -15
-58 -56 -92 -114 -92 -35 0 -47 5 -59 24 -15 23 -11 44 80 375 52 194 95 354
95 356 0 3 -28 5 -62 5 l-63 0 -103 -388z m287 -136 c18 -22 -3 -56 -34 -56
-19 0 -25 5 -25 23 0 41 36 61 59 33z"/>
<path d="M3516 9298 c-9 -29 -33 -118 -54 -198 l-39 -145 -39 -3 c-73 -6 -83
-42 -12 -42 28 0 39 -4 36 -12 -3 -7 -22 -79 -43 -160 l-38 -148 -69 0 c-37 0
-68 2 -68 5 0 3 9 16 21 28 28 30 59 91 59 117 0 30 -95 120 -158 150 -46 22
-52 28 -52 56 0 17 -9 43 -21 58 -41 52 -149 24 -183 -48 -28 -59 -16 -109 30
-126 l25 -10 -48 -92 c-33 -63 -59 -100 -82 -115 l-34 -23 32 0 c39 0 41 -21
4 -49 l-28 -20 37 -1 c20 0 44 3 53 6 22 9 83 101 134 202 23 45 47 82 55 82
25 0 111 -66 114 -88 5 -30 -63 -99 -113 -116 -49 -17 -53 -29 -21 -61 24 -24
30 -25 145 -25 71 0 131 5 146 12 19 9 28 9 37 0 8 -8 60 -12 159 -12 l147 0
33 33 34 32 -109 3 c-61 1 -116 8 -123 14 -20 16 -16 57 19 188 l31 120 78 0
c57 0 78 4 82 14 9 22 -2 26 -75 26 -37 0 -68 3 -68 8 0 4 22 91 50 192 27
102 50 188 50 193 0 4 -27 7 -60 7 l-59 0 -15 -52z m-508 -321 c5 -25 -16 -47
-44 -47 -19 0 -24 5 -24 25 0 41 61 61 68 22z m341 -408 c-7 -14 -14 -18 -21
-11 -13 13 -2 32 18 32 12 0 13 -4 3 -21z"/>
<path d="M4012 8963 c-56 -214 -103 -393 -102 -400 0 -6 7 -19 16 -27 22 -23
278 -23 332 -1 69 29 107 82 131 180 32 132 42 156 74 176 18 10 49 19 71 19
32 0 37 -3 31 -17 -13 -35 -85 -308 -85 -325 0 -9 7 -24 16 -32 13 -14 52 -16
267 -16 139 0 257 4 264 8 6 4 9 19 6 35 l-5 27 -189 0 -189 0 -16 25 c-15 23
-14 31 17 141 28 104 35 118 63 135 39 24 118 26 140 3 19 -18 20 -35 5 -86
l-10 -38 -78 0 c-76 0 -91 -6 -91 -36 0 -3 62 -3 137 -2 l138 3 13 27 c7 16
18 53 25 83 18 90 19 90 -182 93 -148 2 -171 0 -171 -13 0 -10 -9 -15 -27 -15
-21 0 -24 3 -15 12 7 7 12 14 12 18 0 10 -167 -5 -182 -18 -13 -10 -18 -9 -28
3 -9 10 -31 15 -73 15 -95 0 -157 -51 -157 -130 0 -32 30 -70 54 -70 8 0 17
-4 20 -9 10 -16 -26 -101 -51 -121 -35 -27 -103 -27 -128 0 -18 19 -16 30 74
363 51 188 94 350 97 360 5 15 -2 17 -58 17 l-63 0 -103 -387z m287 -137 c18
-21 -3 -56 -33 -56 -30 0 -39 22 -20 49 18 24 37 27 53 7z"/>
<path d="M6372 9333 c-5 -10 -51 -173 -101 -363 -51 -190 -94 -353 -97 -362
-5 -16 -23 -18 -190 -18 -109 0 -193 4 -205 10 -25 14 -24 43 7 159 31 116 60
151 125 151 l41 0 -21 -34 c-37 -59 -23 -114 33 -136 99 -37 216 109 143 178
-22 21 -33 22 -181 22 l-157 0 -39 -37 c-36 -35 -43 -49 -75 -169 -41 -153
-39 -144 -20 -144 8 0 15 -4 15 -9 0 -5 -7 -14 -15 -21 -13 -10 -15 -9 -15 9
0 19 -6 21 -58 21 -32 0 -63 5 -70 12 -19 19 -14 65 23 198 19 69 35 128 35
133 0 4 -80 7 -177 7 -245 0 -246 -1 -302 -211 -37 -135 -37 -139 -11 -139 24
0 26 -22 5 -40 -28 -23 -4 -30 100 -30 96 0 106 2 133 25 l30 25 16 -25 c16
-24 20 -25 127 -25 61 0 119 5 130 11 15 7 24 7 33 0 9 -8 97 -10 272 -9 l259
3 3 33 c3 26 7 32 28 32 30 0 30 -7 3 -36 l-22 -23 29 -7 c17 -4 37 -2 53 7
13 8 77 82 140 165 64 83 117 150 119 149 2 -2 -13 -64 -33 -139 -20 -75 -33
-145 -30 -156 9 -28 36 -32 161 -26 60 2 116 4 124 4 376 -9 474 -8 462 4 -6
6 -12 22 -12 35 0 23 -1 23 -136 23 -74 0 -144 5 -155 10 -25 14 -24 40 5 148
38 144 58 165 147 160 67 -4 82 -25 66 -93 l-10 -44 -81 -3 c-68 -3 -81 -6
-84 -21 -3 -16 7 -17 135 -15 l138 3 22 65 c25 75 28 111 11 128 -8 8 -66 12
-194 12 -230 0 -220 7 -267 -170 -51 -186 -50 -180 -32 -180 19 0 19 -14 0
-30 -13 -10 -15 -9 -15 9 0 19 -6 21 -60 21 -51 0 -62 3 -75 23 -13 21 -12 34
21 155 38 145 37 165 -13 176 -34 8 -95 1 -122 -14 -11 -5 -48 -51 -83 -101
-34 -50 -64 -86 -66 -81 -1 5 33 140 76 300 43 161 76 294 74 297 -3 3 -29 5
-58 5 -41 0 -55 -4 -62 -17z m-956 -440 c-3 -10 -19 -70 -36 -133 -37 -139
-62 -170 -135 -170 -35 0 -48 5 -60 23 -13 21 -12 32 14 127 16 58 32 113 36
123 12 29 56 46 123 47 56 0 63 -2 58 -17z"/>
<path d="M7435 9011 c-43 -25 -65 -63 -65 -110 0 -41 20 -71 46 -71 20 0 18
-8 -16 -81 -38 -83 -61 -117 -96 -140 l-29 -19 33 0 c39 0 40 -6 5 -42 l-27
-28 32 0 c17 0 42 5 55 11 24 11 83 99 136 207 18 35 39 66 47 69 18 7 112
-55 120 -80 12 -37 -87 -127 -140 -127 -25 0 -19 -36 10 -59 24 -19 40 -21
150 -21 117 0 124 1 153 26 17 14 31 30 31 35 0 5 -39 9 -87 9 l-87 0 27 28
c33 34 66 108 60 132 -8 29 -104 115 -162 145 -35 17 -51 31 -47 40 8 21 -13
74 -34 85 -29 16 -82 12 -115 -9z m93 -23 c17 -22 -4 -58 -33 -58 -33 0 -43
25 -20 50 21 23 38 25 53 8z"/>
<path d="M4473 8409 c-58 -37 -64 -121 -8 -135 81 -20 166 96 103 140 -30 21
-57 20 -95 -5z"/>
<path d="M4386 8123 c-29 -94 -86 -328 -86 -352 0 -42 23 -51 129 -51 109 0
141 10 141 45 0 24 -3 25 -55 25 -46 0 -57 4 -70 23 -14 21 -12 35 25 171 22
81 40 150 40 152 0 2 -27 4 -59 4 -48 0 -61 -3 -65 -17z"/>
<path d="M4661 8108 c-13 -43 -81 -302 -81 -311 0 -4 10 -7 21 -7 20 0 20 -1
6 -24 -19 -29 -14 -36 29 -36 20 0 42 9 57 23 18 16 198 227 254 296 2 2 6 2
9 -1 5 -5 -4 -46 -22 -110 -7 -22 24 -25 32 -3 4 8 11 15 18 15 20 0 83 72 95
109 14 44 14 47 -5 65 -21 21 -122 22 -151 1 -12 -8 -58 -63 -103 -121 -45
-58 -84 -104 -86 -101 -3 2 9 53 26 113 16 60 30 112 30 117 0 4 -27 7 -59 7
-58 0 -60 -1 -70 -32z"/>
<path d="M1235 7414 c-118 -25 -208 -76 -306 -174 -140 -140 -197 -285 -186
-479 9 -168 65 -294 185 -414 105 -107 232 -168 377 -183 l65 -7 0 637 0 636
-32 -1 c-18 0 -64 -7 -103 -15z"/>
<path d="M1410 7180 l0 -250 50 0 50 0 0 250 0 250 -50 0 -50 0 0 -250z"/>
<path d="M1545 7420 c-7 -12 -6 -304 2 -412 l6 -78 33 0 34 0 0 250 0 250 -34
0 c-19 0 -38 -4 -41 -10z"/>
<path d="M1660 7180 l0 -250 30 0 30 0 0 250 0 250 -30 0 -30 0 0 -250z"/>
<path d="M1760 7181 c0 -245 0 -251 20 -251 20 0 20 5 18 247 -3 227 -4 248
-20 251 -17 3 -18 -14 -18 -247z"/>
<path d="M1830 7180 c0 -160 4 -250 10 -250 6 0 10 90 10 250 0 160 -4 250
-10 250 -6 0 -10 -90 -10 -250z"/>
<path d="M1970 6795 c0 -417 3 -635 10 -635 7 0 10 218 10 635 0 417 -3 635
-10 635 -7 0 -10 -218 -10 -635z"/>
<path d="M2027 7423 c-2 -4 -2 -290 1 -635 4 -523 7 -628 18 -628 15 0 18 136
19 905 0 327 -2 360 -17 363 -9 2 -18 -1 -21 -5z"/>
<path d="M2100 6795 l0 -635 30 0 30 0 0 635 0 635 -30 0 -30 0 0 -635z"/>
<path d="M2200 6796 l0 -636 34 0 34 0 7 113 c3 61 5 346 3 632 l-3 520 -37 3
-38 3 0 -635z"/>
<path d="M2310 6795 l0 -635 50 0 50 0 0 635 0 635 -50 0 -50 0 0 -635z"/>
<path d="M2450 7110 l0 -320 315 0 315 0 0 43 c0 64 -35 189 -72 260 -48 92
-182 223 -278 269 -70 34 -197 68 -255 68 l-25 0 0 -320z"/>
<path d="M3200 6795 c0 -422 3 -634 10 -630 6 4 10 225 10 630 0 405 -4 626
-10 630 -7 4 -10 -208 -10 -630z"/>
<path d="M3255 7418 c-3 -7 -4 -292 -3 -633 3 -581 4 -620 21 -623 16 -3 17
32 17 632 0 564 -2 636 -15 636 -9 0 -18 -6 -20 -12z"/>
<path d="M3330 6795 l0 -635 30 0 30 0 0 635 0 635 -30 0 -30 0 0 -635z"/>
<path d="M3430 6796 l0 -636 35 0 35 0 0 625 c0 344 1 628 3 633 1 4 -15 8
-35 10 l-38 3 0 -635z"/>
<path d="M3540 6795 l0 -635 50 0 50 0 0 635 0 635 -50 0 -50 0 0 -635z"/>
<path d="M3680 7235 l0 -195 238 2 237 3 0 190 0 190 -237 3 -238 2 0 -195z"/>
<path d="M4270 6795 c0 -417 3 -635 10 -635 7 0 10 218 10 635 0 417 -3 635
-10 635 -7 0 -10 -218 -10 -635z"/>
<path d="M4330 6795 c0 -628 0 -635 20 -635 20 0 20 7 20 635 0 628 0 635 -20
635 -20 0 -20 -7 -20 -635z"/>
<path d="M4410 6795 l0 -635 25 0 25 0 0 635 0 635 -25 0 -25 0 0 -635z"/>
<path d="M4500 6795 l0 -635 40 0 40 0 0 635 0 635 -40 0 -40 0 0 -635z"/>
<path d="M4620 6795 l0 -635 45 0 45 0 0 635 0 635 -45 0 -45 0 0 -635z"/>
<path d="M4750 7235 l0 -195 240 0 240 0 0 195 0 195 -240 0 -240 0 0 -195z"/>
<path d="M5845 7414 c-228 -49 -427 -242 -480 -466 -19 -81 -19 -225 0 -305
42 -179 177 -343 351 -425 63 -29 175 -58 232 -58 l32 0 0 635 0 635 -32 -1
c-18 0 -64 -7 -103 -15z"/>
<path d="M6020 6796 l0 -636 44 0 44 0 7 73 c3 39 5 324 3 632 l-3 560 -47 3
-48 3 0 -635z"/>
<path d="M6155 7418 c-3 -7 -4 -292 -3 -633 l3 -620 38 -3 37 -3 0 635 0 636
-35 0 c-20 0 -38 -6 -40 -12z"/>
<path d="M6270 6795 l0 -635 30 0 30 0 0 635 0 635 -30 0 -30 0 0 -635z"/>
<path d="M6367 7423 c-9 -8 -9 -490 0 -925 5 -272 9 -338 20 -338 11 0 13 111
13 635 0 522 -2 635 -13 635 -8 0 -17 -3 -20 -7z"/>
<path d="M6440 6795 c0 -417 3 -635 10 -635 7 0 10 218 10 635 0 417 -3 635
-10 635 -7 0 -10 -218 -10 -635z"/>
<path d="M6577 7423 c-9 -14 6 -1262 15 -1257 11 7 10 1251 -1 1259 -5 3 -12
2 -14 -2z"/>
<path d="M6635 7418 c-3 -7 -4 -292 -3 -633 3 -581 4 -620 21 -623 16 -3 17
32 17 632 0 564 -2 636 -15 636 -9 0 -18 -6 -20 -12z"/>
<path d="M6710 6795 l0 -635 30 0 30 0 0 635 0 635 -30 0 -30 0 0 -635z"/>
<path d="M6810 6795 l0 -635 35 0 35 0 0 635 0 635 -35 0 -35 0 0 -635z"/>
<path d="M6920 6795 l0 -635 50 0 50 0 0 635 0 635 -50 0 -50 0 0 -635z"/>
<path d="M7054 7416 c-3 -9 -4 -95 -2 -193 l3 -178 240 0 240 0 0 190 0 190
-238 3 c-202 2 -238 0 -243 -12z"/>
<path d="M7650 6795 c0 -417 3 -635 10 -635 7 0 10 218 10 635 0 417 -3 635
-10 635 -7 0 -10 -218 -10 -635z"/>
<path d="M7710 6795 c0 -628 0 -635 20 -635 20 0 20 7 20 635 0 628 0 635 -20
635 -20 0 -20 -7 -20 -635z"/>
<path d="M7783 7414 c-3 -9 -3 -132 0 -273 4 -141 7 -419 7 -618 l0 -363 25 0
25 0 0 635 0 635 -25 0 c-14 0 -28 -7 -32 -16z"/>
<path d="M7880 6795 l0 -635 40 0 40 0 0 635 0 635 -40 0 -40 0 0 -635z"/>
<path d="M8000 6795 l0 -635 45 0 45 0 0 635 0 635 -45 0 -45 0 0 -635z"/>
<path d="M8130 7235 l0 -195 240 0 240 0 0 195 0 195 -240 0 -240 0 0 -195z"/>
<path d="M3680 6795 l0 -195 190 0 190 0 0 195 0 195 -190 0 -190 0 0 -195z"/>
<path d="M4757 6984 c-4 -4 -7 -92 -7 -196 l0 -188 193 2 192 3 0 190 0 190
-186 3 c-102 1 -188 -1 -192 -4z"/>
<path d="M7059 6986 c-2 -2 -3 -90 -1 -195 l3 -191 189 0 190 0 0 195 0 195
-188 0 c-104 0 -191 -2 -193 -4z"/>
<path d="M8137 6984 c-4 -4 -7 -92 -7 -196 l0 -188 193 2 192 3 0 190 0 190
-186 3 c-102 1 -188 -1 -192 -4z"/>
<path d="M1660 6495 l0 -335 30 0 30 0 0 335 0 335 -30 0 -30 0 0 -335z"/>
<path d="M1760 6494 c0 -314 1 -335 18 -332 16 3 17 28 20 336 2 327 2 332
-18 332 -20 0 -20 -6 -20 -336z"/>
<path d="M1830 6495 c0 -217 4 -335 10 -335 6 0 10 118 10 335 0 217 -4 335
-10 335 -6 0 -10 -118 -10 -335z"/>
<path d="M2460 6752 c0 -16 586 -592 603 -592 16 0 17 21 17 300 l0 300 -310
0 c-170 0 -310 -3 -310 -8z"/>
<path d="M1410 6410 l0 -250 50 0 50 0 0 250 0 250 -50 0 -50 0 0 -250z"/>
<path d="M1550 6410 l0 -250 35 0 35 0 0 250 0 250 -35 0 -35 0 0 -250z"/>
<path d="M3680 6350 l0 -190 238 2 237 3 3 188 2 187 -240 0 -240 0 0 -190z"/>
<path d="M4750 6350 l0 -190 240 0 240 0 0 190 0 190 -240 0 -240 0 0 -190z"/>
<path d="M7060 6350 l0 -190 238 2 237 3 3 188 2 187 -240 0 -240 0 0 -190z"/>
<path d="M8130 6350 l0 -190 240 0 240 0 0 190 0 190 -240 0 -240 0 0 -190z"/>
<path d="M3130 4650 c-12 -8 -11 -10 7 -10 12 0 25 5 28 10 8 13 -15 13 -35 0z"/>
<path d="M6195 4650 c3 -5 16 -10 28 -10 18 0 19 2 7 10 -20 13 -43 13 -35 0z"/>
<path d="M3048 4589 c-29 -23 -119 -108 -199 -188 -397 -399 -634 -871 -721
-1441 -30 -195 -30 -538 0 -734 39 -247 101 -461 197 -678 316 -711 970 -1263
1715 -1447 603 -149 1201 -90 1750 170 252 120 477 278 684 479 414 403 667
895 758 1476 30 196 30 539 0 734 -87 570 -324 1042 -721 1441 -80 80 -170
165 -199 188 -72 55 -103 54 -37 -2 178 -151 315 -295 440 -462 265 -355 421
-739 487 -1200 28 -196 12 -668 -27 -790 -7 -22 -16 -65 -20 -95 -3 -30 -11
-60 -17 -67 -15 -19 -841 -19 -855 0 -15 20 -41 95 -35 101 3 3 88 6 189 6
103 0 183 4 183 9 0 5 -11 31 -25 58 -30 57 -82 96 -122 92 -19 -2 -41 6 -63
22 -62 46 -137 61 -196 39 -15 -6 -29 -8 -31 -6 -14 14 -63 308 -63 376 l0 35
45 -50 c25 -27 56 -70 70 -95 13 -25 24 -39 25 -32 0 21 14 13 32 -18 9 -17
23 -30 30 -30 7 0 28 -23 47 -50 18 -28 37 -50 42 -50 4 0 19 -19 33 -43 25
-40 26 -41 26 -14 0 15 3 27 8 27 10 -1 72 -86 72 -100 0 -5 5 -10 10 -10 17
0 12 263 -6 334 -24 95 -72 181 -142 257 l-64 69 32 0 c24 0 31 4 27 15 -9 22
8 27 39 10 39 -20 94 -20 94 0 0 17 16 20 25 5 3 -5 15 -6 28 -1 12 5 40 14
62 20 191 52 231 64 238 70 21 20 -127 112 -236 146 -144 46 -328 28 -486 -45
-35 -17 -66 -30 -68 -30 -3 0 22 29 54 64 33 35 77 91 97 124 37 61 42 73 29
71 -33 -5 -27 8 21 52 60 55 67 69 36 69 -28 0 -25 13 8 32 15 9 36 26 47 38
16 17 17 23 6 30 -11 6 -7 16 17 46 38 45 39 54 11 54 -18 0 -14 7 25 41 52
46 57 59 21 59 -32 0 -32 10 1 41 23 21 54 69 54 83 0 11 -82 -19 -170 -61
-79 -38 -108 -59 -175 -127 -153 -154 -217 -346 -193 -576 5 -50 8 -94 5 -96
-2 -3 -44 7 -93 22 -77 23 -105 27 -209 26 -139 -2 -193 -12 -292 -58 -138
-62 -253 -174 -322 -312 -32 -63 -32 -64 -9 -57 13 4 45 20 72 36 l48 30 -4
-31 c-3 -16 -2 -30 2 -30 9 0 52 30 84 59 l29 26 -7 -28 -7 -27 38 15 c21 9
42 20 48 26 15 15 28 10 21 -7 -6 -15 -3 -15 21 1 16 10 39 28 54 41 31 29 39
30 39 4 0 -18 3 -19 23 -9 12 7 38 25 58 40 42 33 49 35 49 14 0 -19 8 -19 55
1 20 8 39 13 41 11 3 -2 -13 -31 -34 -63 -69 -104 -86 -162 -86 -299 -1 -101
3 -132 23 -192 13 -40 27 -73 31 -73 4 0 13 21 20 48 21 81 20 79 34 60 20
-27 24 -22 32 39 6 47 9 54 19 40 11 -15 13 -14 23 9 7 14 12 34 12 46 0 13 5
18 14 15 14 -6 26 30 26 80 0 17 5 23 18 21 14 -2 19 8 26 55 8 49 12 56 28
51 13 -4 18 0 18 12 0 11 3 14 8 9 5 -6 14 -57 21 -115 6 -58 22 -159 36 -224
23 -112 24 -120 7 -132 -9 -7 -20 -14 -24 -14 -11 0 -48 -76 -48 -99 0 -18 8
-20 66 -23 l66 -3 17 -45 c10 -25 16 -51 13 -58 -3 -9 -370 -12 -1662 -12
l-1658 0 -67 61 c-150 135 -349 231 -524 251 -17 2 -27 12 -34 33 -15 47 -14
516 1 620 98 676 410 1234 932 1667 63 52 26 49 -42 -3z m3133 -1650 c178 -60
309 -218 344 -416 17 -94 19 -163 5 -163 -6 0 -22 23 -35 51 -22 48 -24 50
-35 30 -16 -30 -25 -20 -40 46 l-13 58 -15 -35 -14 -35 -26 50 c-14 28 -27 44
-29 37 -9 -24 -22 -1 -29 49 l-7 50 -23 -22 -23 -22 -17 61 c-15 53 -19 60
-35 52 -25 -14 -25 -14 -53 23 -19 26 -25 49 -31 120 -4 52 -4 87 2 87 5 0 38
-10 74 -21z m184 -694 c24 -13 45 -33 48 -44 4 -16 11 -18 50 -14 42 5 49 3
79 -28 l33 -34 -164 -8 c-129 -6 -167 -5 -177 5 -7 7 -20 38 -28 68 -15 51
-15 56 1 67 29 22 111 16 158 -12z m-315 -91 c13 -33 6 -44 -30 -44 -39 0 -44
12 -19 44 26 33 37 33 49 0z m-1005 -329 c231 -5 516 -24 751 -50 216 -24 429
-56 432 -65 8 -22 118 -191 158 -242 52 -68 52 -68 -89 -38 -437 93 -993 141
-1637 141 -590 0 -1048 -36 -1501 -117 -76 -13 -144 -24 -152 -24 -14 0 -31
44 -72 189 -11 39 -12 57 -4 62 23 14 410 70 679 98 345 37 891 63 1130 54 47
-1 184 -5 305 -8z m1547 -175 c179 -38 380 -90 392 -100 8 -8 -88 -202 -123
-248 l-16 -22 -57 20 c-32 11 -62 20 -68 20 -6 0 12 -22 41 -48 l53 -49 -43
-61 c-34 -49 -47 -60 -60 -53 -21 12 -198 195 -234 242 -29 39 -45 85 -25 73
8 -5 9 -1 5 10 -4 10 -3 15 3 11 6 -3 10 1 10 9 0 9 0 18 0 21 0 3 9 14 20 25
11 11 20 24 20 28 0 5 -18 38 -40 75 -22 36 -40 68 -40 71 0 9 12 8 162 -24z
m-709 -1207 c-7 -2 -21 -2 -30 0 -10 3 -4 5 12 5 17 0 24 -2 18 -5z m102 -12
c-6 -4 -41 -26 -80 -47 l-70 -38 40 46 c34 40 46 46 80 47 22 1 35 -3 30 -8z
m-165 -66 c-7 -8 -9 -15 -4 -15 12 -1 -27 -30 -40 -30 -5 0 3 14 19 30 30 31
47 41 25 15z"/>
<path d="M4715 4413 c-55 -55 -79 -114 -79 -198 0 -82 24 -141 81 -198 58 -59
116 -82 203 -82 118 0 206 55 260 162 33 66 34 168 2 234 -29 61 -88 119 -120
119 l-25 0 29 -22 c40 -31 52 -46 79 -103 44 -89 26 -201 -44 -273 -54 -55
-104 -76 -181 -76 -77 0 -127 21 -181 76 -70 72 -88 184 -44 273 27 57 39 72
79 103 l29 22 -25 0 c-15 0 -39 -15 -63 -37z"/>
<path d="M5286 3474 c-92 -18 -101 -28 -45 -53 24 -12 52 -21 62 -21 23 0 22
-17 -3 -25 -31 -10 -15 -23 48 -36 31 -7 49 -14 40 -17 -29 -6 -21 -19 26 -38
24 -10 42 -23 39 -30 -5 -13 28 -24 75 -24 35 0 42 -13 15 -28 -14 -8 -10 -12
23 -21 21 -6 54 -11 72 -11 34 0 40 -8 20 -28 -9 -9 -8 -13 3 -17 18 -7 219
91 219 106 0 6 -35 46 -77 89 -147 145 -313 195 -517 154z"/>
<path d="M3068 2539 c-193 -28 -351 -196 -374 -398 l-7 -61 582 0 581 0 0 38
c-1 44 -38 139 -71 180 -60 74 -194 131 -276 116 -26 -5 -40 1 -85 34 -68 52
-134 80 -217 92 -36 5 -68 9 -71 9 -3 -1 -31 -5 -62 -10z m177 -44 c63 -17
108 -41 166 -89 33 -27 43 -30 115 -30 90 -1 143 -22 206 -83 40 -39 81 -122
76 -156 l-3 -22 -533 -3 c-480 -2 -533 -1 -539 14 -8 22 23 128 53 179 13 24
46 63 73 88 109 102 246 138 386 102z"/>
<path d="M4522 2342 c-29 -11 -68 -33 -85 -50 -25 -23 -44 -31 -85 -34 -82 -8
-152 -74 -152 -144 l0 -34 408 0 c225 0 411 2 414 6 10 10 -28 95 -56 125 -27
28 -120 64 -137 53 -5 -3 -23 6 -41 21 -81 68 -177 88 -266 57z m173 -41 c22
-10 54 -34 71 -53 30 -34 34 -35 82 -30 48 4 54 2 87 -31 60 -60 51 -68 -65
-66 -56 1 -104 -1 -107 -5 -4 -3 -123 -6 -265 -6 -241 0 -258 1 -258 18 0 47
63 92 130 92 34 0 50 7 86 38 70 62 161 79 239 43z"/>
</g>
</svg>
