
<svg width="198px" height="234px" viewBox="0 0 198 234" version="1.1" xmlns="http://www.w3.org/2000/svg" xmlns:xlink="http://www.w3.org/1999/xlink">
    <!-- Generator: Sketch 44.1 (41455) - http://www.bohemiancoding.com/sketch -->
    <desc>Created with Sketch.</desc>
    <defs>
        <linearGradient x1="41.4099395%" y1="109.819663%" x2="41.4099409%" y2="-28.0120275%" id="linearGradient-1">
            <stop stop-color="#EF32D9" offset="0%"></stop>
            <stop stop-color="#89FFFD" offset="100%"></stop>
        </linearGradient>
        <linearGradient x1="-18.9987988%" y1="0%" x2="108.282997%" y2="266.101662%" id="linearGradient-2">
            <stop stop-color="#EF32D9" offset="0%"></stop>
            <stop stop-color="#89FFFD" offset="100%"></stop>
        </linearGradient>
        <linearGradient x1="-18.9987988%" y1="0%" x2="108.178026%" y2="326.158761%" id="linearGradient-3">
            <stop stop-color="#EF32D9" offset="0%"></stop>
            <stop stop-color="#89FFFD" offset="100%"></stop>
        </linearGradient>
        <linearGradient x1="-18.9987988%" y1="0%" x2="130.544086%" y2="80.6162537%" id="linearGradient-4">
            <stop stop-color="#EF32D9" offset="0%"></stop>
            <stop stop-color="#89FFFD" offset="100%"></stop>
        </linearGradient>
        <linearGradient x1="52.6989891%" y1="312.945724%" x2="56.1698595%" y2="-138.543752%" id="linearGradient-5">
            <stop stop-color="#EF32D9" offset="0%"></stop>
            <stop stop-color="#89FFFD" offset="100%"></stop>
        </linearGradient>
        <linearGradient x1="-18.9987988%" y1="0%" x2="114.039742%" y2="385.602009%" id="linearGradient-6">
            <stop stop-color="#EF32D9" offset="0%"></stop>
            <stop stop-color="#89FFFD" offset="100%"></stop>
        </linearGradient>
        <linearGradient x1="-18.9987988%" y1="0%" x2="85.7853292%" y2="114.097296%" id="linearGradient-7">
            <stop stop-color="#EF32D9" offset="0%"></stop>
            <stop stop-color="#89FFFD" offset="100%"></stop>
        </linearGradient>
        <linearGradient x1="-18.9987988%" y1="0%" x2="155.091795%" y2="71.9601681%" id="linearGradient-8">
            <stop stop-color="#EF32D9" offset="0%"></stop>
            <stop stop-color="#89FFFD" offset="100%"></stop>
        </linearGradient>
        <linearGradient x1="0%" y1="0%" x2="100%" y2="100%" id="linearGradient-9">
            <stop stop-color="#EF32D9" offset="0%"></stop>
            <stop stop-color="#89FFFD" offset="100%"></stop>
        </linearGradient>
    </defs>
    <g id="Welcome" stroke="none" stroke-width="1" fill="none" fill-rule="evenodd">
        <g id="Desktop-HD" transform="translate(-620.000000, -278.000000)">
            <g id="beach" transform="translate(655.000000, 383.000000)">
                <path d="M38.35575,5.3605 C35.28325,10.70825 33.5,16.89025 33.5,23.5 C33.5,43.65825 49.8415,60 70,60 C90.1585,60 106.5,43.65825 106.5,23.5 C106.5,20.69225 106.153,17.9705 105.55275,15.34475 C94.37025,5.78525 79.86475,0 64,0 C54.878,0 46.20875,1.92125 38.35575,5.3605 Z" id="Shape" stroke="url(#linearGradient-1)" opacity="0.300000012"></path>
                <circle id="Oval" stroke="url(#linearGradient-1)" opacity="0.300000012" cx="70" cy="23.5" r="17.15975"></circle>
                <path d="M87.02125,76.60425 C87.02125,73.54875 84.54425,71.0715 81.4885,71.0715 C81.02725,71.0715 80.5865,71.1445 80.158,71.25075 C78.71425,69.69175 76.6675,68.70025 74.375,68.70025 C70.00975,68.70025 66.47125,72.239 66.47125,76.604 L87.02125,76.604 L87.02125,76.60425 Z" id="Shape" stroke="#9D9D9D" opacity="0.600000024"></path>
                <path d="M42.8295,76.60425 C42.8295,72.428 39.444,69.0425 35.26775,69.0425 C34.6375,69.0425 34.03475,69.14225 33.4495,69.2875 C31.47625,67.15675 28.67875,65.80175 25.5455,65.80175 C19.5795,65.80175 14.74275,70.63825 14.74275,76.6045 L42.8295,76.6045 L42.8295,76.60425 Z" id="Shape" stroke="#9D9D9D"></path>
                <path d="M68.27175,72.93725 C67.887,72.93725 67.5235,73.013 67.175,73.12275 C66.071,71.536 64.24,70.4925 62.1605,70.4925 C60.081,70.4925 58.24975,71.53575 57.146,73.12275 C56.7975,73.01275 56.434,72.93725 56.04925,72.93725 C54.024,72.93725 52.3825,74.579 52.3825,76.604 L71.939,76.604 C71.9385,74.579 70.29675,72.93725 68.27175,72.93725 Z" id="Shape" stroke="#9D9D9D"></path>
                <path d="M108.79225,73.652 C108.4825,73.652 108.18975,73.713 107.90925,73.8015 C107.0205,72.524 105.54625,71.684 103.872,71.684 C102.19775,71.684 100.7235,72.524 99.83475,73.8015 C99.55425,73.713 99.2615,73.652 98.95175,73.652 C97.32125,73.652 95.99975,74.97375 95.99975,76.604 L111.74425,76.604 C111.7445,74.97375 110.42275,73.652 108.79225,73.652 Z" id="Shape" stroke="#9D9D9D"></path>
                <path d="M122.362,72.9825 C121.982,72.9825 121.623,73.05725 121.27875,73.16575 C120.1885,71.5985 118.37975,70.568 116.32575,70.568 C114.27175,70.568 112.46325,71.5985 111.37275,73.16575 C111.0285,73.05725 110.6695,72.9825 110.2895,72.9825 C108.28925,72.9825 106.66775,74.604 106.66775,76.60425 L125.9835,76.60425 C125.98375,74.604 124.36225,72.9825 122.362,72.9825 Z" id="Shape" stroke="#9D9D9D" opacity="0.600000024"></path>
                <path d="M125.98375,80 L11.66675,80 C11.66675,80 18.012438,94.7384911 21.1852821,102.107737 C21.4568547,102.738491 22,104 22,104 C22,104 51.53425,121.33325 60.1005,123.33325 C63.62325,124.15575 69.79325,125.54175 75.8375,126.88925 C100.285,122.315 119.843,103.85825 125.98375,80 Z" id="Shape" stroke="#9D9D9D" opacity="0.600000024"></path>
                <path d="M118.69575,97.24675 C107.39425,92.6855 86.9765,89.6335 63.62375,89.6335 C43.85575,89.6335 26.1765,91.8185 14.356,95.25525 L17.59975,102.66325 C17.59975,102.66325 39.55625,115.33225 52.54375,121.0035 C56.1455,121.15675 59.8435,121.241 63.62375,121.241 C75.74475,121.241 87.06525,120.41375 96.7485,118.98625 C105.71425,113.63475 113.26575,106.1605 118.69575,97.24675 Z" id="Shape" fill="url(#linearGradient-2)"></path>
                <path d="M116.28775,100.88925 L33.048,100.88925 L33.048,106.75 L111.6165,106.75 C113.28625,104.893 114.84225,102.93325 116.28775,100.88925 Z" id="Shape" fill="url(#linearGradient-3)"></path>
                <path d="M112.734,105.43725 L33.048,105.43725 C33.048,105.43725 49.1205,116.25 49.31025,116.25 C49.433,116.25 73.386,118.3375 90.296,119.8125 C92.51175,119.564 94.67475,119.292 96.7485,118.9865 C102.80125,115.3735 108.188,110.77475 112.734,105.43725 Z" id="Shape" fill="url(#linearGradient-4)"></path>
                <path d="M64,83.25 C86.4575,83.25 106.913,85.947 122.28925,90.36775 C123.7945,87.0475 125.0585,83.5945 125.9835,80 L11.66675,80 L15.11975,88.01975 C29.02725,85.01275 45.8575,83.25 64,83.25 Z" id="Shape" fill="url(#linearGradient-5)"></path>
                <path d="M11.92975,81 C11.18375,81 10.46875,80.582 10.125,79.86625 C9.6465,78.87025 10.0665,77.67575 11.0625,77.19725 C19.80475,72.997 30.2265,63.8145 30.2265,43.92 C30.2265,42.8155 31.121,41.92 32.2265,41.92 C33.332,41.92 34.2265,42.8155 34.2265,43.92 C34.2265,65.8945 22.57025,76.1055 12.793,80.80275 C12.51375,80.9365 12.21875,81 11.92975,81 Z" id="Shape" fill=""></path>
                <path d="M33.0115,42.04575 C33.0115,42.04575 20.958,41.73025 20.53875,54.09275 C20.53875,54.09275 21.9055,52.9845 22.38425,51.95025 C22.38425,51.95025 22.69375,52.577 22.4745,53.23125 C22.4745,53.23125 23.6015,52.13575 23.89725,50.92225 C23.89725,50.92225 24.101,51.375 23.90125,52.0305 C23.90125,52.0305 25.07825,51.0635 25.403,50.29125 C25.403,50.29125 25.59475,50.6385 25.328,51.1225 C25.328,51.1225 26.44475,50.15175 26.7235,48.76975 C26.7235,48.76975 27.06425,49.08525 26.97675,49.811 C26.97675,49.811 28.312,48.22775 28.45075,47.3175 C28.45075,47.3175 28.9065,47.50775 28.646,48.19425 C28.646,48.194 31.918,45.76225 33.0115,42.04575 Z" id="Shape" fill=""></path>
                <path d="M33.0115,42.04575 C33.0115,42.04575 43.222,48.4595 36.72325,58.9845 C36.72325,58.9845 36.199,57.30475 36.3735,56.1785 C36.3735,56.1785 35.7685,56.52875 35.58875,57.195 C35.58875,57.195 35.257,55.65875 35.68325,54.48425 C35.68325,54.48425 35.26275,54.7485 35.06625,55.405 C35.06625,55.405 34.62175,53.948 34.77925,53.125 C34.77925,53.125 34.42725,53.308 34.38125,53.85875 C34.38125,53.85875 33.98925,52.43175 34.5225,51.127 C34.5225,51.127 34.064,51.201 33.735,51.8535 C33.735,51.8535 33.50025,49.79575 33.889,48.961 C33.889,48.961 33.404,48.867 33.24075,49.583 C33.2405,49.58275 31.8635,45.74575 33.0115,42.04575 Z" id="Shape" fill=""></path>
                <path d="M33.0115,42.04575 C33.0115,42.04575 34.252,29.5125 22.24975,28.29175 C22.24975,28.29175 23.22275,29.7855 24.1925,30.34975 C24.1925,30.34975 23.55825,30.63225 22.93825,30.36225 C22.93825,30.36225 23.9175,31.6055 25.076,31.9905 C25.076,31.9905 24.6195,32.17425 23.99675,31.9245 C23.99675,31.9245 24.84675,33.2115 25.57375,33.59875 C25.57375,33.59875 25.221,33.77625 24.7705,33.468 C24.7705,33.468 25.629,34.6925 26.95275,35.0705 C26.95275,35.0705 26.61925,35.4055 25.9195,35.2685 C25.9195,35.2685 27.3575,36.75925 28.233,36.96175 C28.233,36.96175 28.01225,37.42425 27.36425,37.10925 C27.36425,37.10925 29.47825,40.671 33.0115,42.04575 Z" id="Shape" fill=""></path>
                <path d="M33.0115,42.04575 C33.0115,42.04575 23.98125,31.84675 13.349,41.103 C13.349,41.103 15.327,41.37075 16.5585,40.963 C16.5585,40.963 16.27425,41.7055 15.5595,42.0325 C15.5595,42.0325 17.342,42.11225 18.582,41.41375 C18.582,41.41375 18.36175,41.93375 17.661,42.27775 C17.661,42.27775 19.37475,42.49875 20.26925,42.167 C20.26925,42.167 20.12725,42.595 19.51825,42.75075 C19.51825,42.75075 21.18875,42.919 22.556,42.0755 C22.556,42.0755 22.55575,42.602 21.883,43.0935 C21.883,43.0935 24.23275,42.96625 25.099,42.37375 C25.099,42.37375 25.29175,42.898 24.51825,43.21625 C24.5185,43.2165 29.06925,44.02925 33.0115,42.04575 Z" id="Shape" fill=""></path>
                <path d="M33.0115,42.04575 C33.0115,42.04575 46.17925,38.556 49.9045,52.152 C49.9045,52.152 48.10925,51.2795 47.30975,50.25775 C47.30975,50.25775 47.135,51.03325 47.549,51.7015 C47.549,51.7015 46.02075,50.7805 45.37525,49.512 C45.37525,49.512 45.2705,50.067 45.6635,50.74175 C45.6635,50.74175 44.11425,49.9765 43.55325,49.20475 C43.55325,49.20475 43.4345,49.63975 43.85525,50.10675 C43.85525,50.10675 42.37125,49.3215 41.7,47.86175 C41.7,47.86175 41.40875,48.3005 41.6965,49.08225 C41.6965,49.08225 39.8105,47.67475 39.41775,46.70175 C39.41775,46.70175 38.967,47.0315 39.43475,47.72475 C39.43425,47.72475 35.19525,45.881 33.0115,42.04575 Z" id="Shape" fill=""></path>
                <path d="M33.0115,42.04575 C33.0115,42.04575 35.41375,28.637 49.31,31.0065 C49.31,31.0065 47.7605,32.265 46.49675,32.55775 C46.49675,32.55775 47.12575,33.04375 47.90625,32.951 C47.90625,32.951 46.4255,33.94675 45.0035,33.99575 C45.0035,33.99575 45.462,34.3255 46.2395,34.25425 C46.2395,34.25425 44.8915,35.335 43.95475,35.51725 C43.95475,35.51725 44.2985,35.8085 44.89975,35.62475 C44.89975,35.62475 43.56075,36.63775 41.9545,36.62925 C41.9545,36.62925 42.229,37.07875 43.059,37.14825 C43.059,37.14825 40.9865,38.26275 39.9385,38.2075 C39.9385,38.2075 40.04675,38.7555 40.873,38.6245 C40.87275,38.62475 37.41025,41.6875 33.0115,42.04575 Z" id="Shape" fill=""></path>
                <path d="M25.7645,102.4375 L25.7645,98.37925 C32.1965,98.37925 47.5375,81.444 47.94375,73.8925 L51.998,74.1105 C51.467,83.90625 34.307,102.4375 25.7645,102.4375 Z" id="Shape" fill=""></path>
                <circle id="Oval" stroke="url(#linearGradient-1)" cx="70" cy="23.5" r="6.74625"></circle>
                <path d="M51.89875,108 C46.94275,104 41.61975,107.83325 38.68275,102 C36.9505,98.55925 29.21625,100.9 25.46675,98 C20.51075,94.16675 21.2695,89.22925 18.85875,84 C15.76125,77.28125 7.9855,72.6135 0.5225,72.05625 C4.487,103.5965 31.3845,128 64,128 C80.22475,128 95.02875,121.95075 106.30925,112 L62.912,112 C57.58875,112 54.83475,110.36975 51.89875,108 Z" id="Shape" fill="url(#linearGradient-6)"></path>
                <path d="M50.556,74.60675 C50.556,74.60675 37.356,73.04775 35.652,86.57625 C35.652,86.57625 37.264,85.497 37.8935,84.41 C37.8935,84.41 38.17025,85.12925 37.86375,85.8255 C37.86375,85.8255 39.211,84.7365 39.658,83.43375 C39.658,83.43375 39.83625,83.95125 39.55075,84.65075 C39.55075,84.65075 40.94025,83.70775 41.37425,82.8925 C41.37425,82.8925 41.54975,83.293 41.20825,83.7975 C41.20825,83.7975 42.532,82.84425 42.977,81.35525 C42.977,81.35525 43.31925,81.736 43.15025,82.52375 C43.15025,82.52375 44.77525,80.92 45.01925,79.93475 C45.01925,79.93475 45.5005,80.1895 45.14525,80.917 C45.14525,80.91675 48.9815,78.57625 50.556,74.60675 Z" id="Shape" fill=""></path>
                <path d="M50.556,74.60675 C50.556,74.60675 61.119,82.67475 52.92625,93.5745 C52.92625,93.5745 52.52,91.67775 52.8245,90.459 C52.8245,90.459 52.12525,90.78275 51.86075,91.496 C51.86075,91.496 51.65125,89.77625 52.237,88.53 C52.237,88.53 51.749,88.77775 51.467,89.4785 C51.467,89.4785 51.12575,87.83425 51.3815,86.94675 C51.3815,86.94675 50.97675,87.11225 50.87075,87.712 C50.87075,87.712 50.584,86.106 51.3005,84.72725 C51.3005,84.72725 50.78975,84.76225 50.363,85.4455 C50.363,85.4455 50.31225,83.163 50.823,82.28575 C50.823,82.28575 50.30025,82.13375 50.04875,82.90325 C50.049,82.9035 48.9235,78.55275 50.556,74.60675 Z" id="Shape" fill=""></path>
                <path d="M50.556,74.60675 C50.556,74.60675 53.17875,60.97325 40.12625,58.42575 C40.12625,58.42575 41.044,60.16325 42.05175,60.88025 C42.05175,60.88025 41.32725,61.1265 40.67375,60.768 C40.67375,60.768 41.6235,62.23125 42.8565,62.7705 C42.8565,62.7705 42.337,62.92625 41.6785,62.5895 C41.6785,62.5895 42.48225,64.08775 43.24125,64.586 C43.24125,64.586 42.836,64.74525 42.3725,64.3615 C42.3725,64.3615 43.19175,65.79225 44.60675,66.34 C44.60675,66.34 44.20675,66.67425 43.4525,66.45325 C43.4525,66.45325 44.881,68.2345 45.82175,68.54475 C45.82175,68.54475 45.533,69.03025 44.85325,68.61925 C44.8535,68.6195 46.81575,72.74175 50.556,74.60675 Z" id="Shape" fill=""></path>
                <path d="M50.556,74.60675 C50.556,74.60675 41.66925,62.50225 29.06625,71.5935 C29.06625,71.5935 31.21075,72.0865 32.60375,71.76275 C32.60375,71.76275 32.217,72.54925 31.3995,72.8365 C31.3995,72.8365 33.34825,73.1035 34.77975,72.4615 C34.77975,72.4615 34.48575,73.01025 33.68175,73.31725 C33.68175,73.31725 35.54075,73.73225 36.55625,73.458 C36.55625,73.458 36.3575,73.9135 35.67325,74.02325 C35.67325,74.02325 37.49,74.376 39.076,73.58775 C39.076,73.58775 39.02275,74.16575 38.23475,74.6375 C38.23475,74.6375 40.827,74.73425 41.8375,74.171 C41.8375,74.171 41.99625,74.766 41.11525,75.03725 C41.115,75.03725 46.02875,76.38725 50.556,74.60675 Z" id="Shape" fill=""></path>
                <path d="M50.556,74.60675 C50.556,74.60675 65.36175,72.10075 68.08325,87.4005 C68.08325,87.4005 66.20025,86.262 65.4255,85.06025 C65.4255,85.06025 65.15575,85.894 65.54275,86.669 C65.54275,86.669 63.95775,85.50425 63.37675,84.04675 C63.37675,84.04675 63.206,84.6455 63.5695,85.4255 C63.5695,85.4255 61.94575,84.42975 61.4075,83.52575 C61.4075,83.52575 61.2335,83.99125 61.64825,84.5465 C61.64825,84.5465 60.09825,83.535 59.50825,81.86525 C59.50825,81.86525 59.14425,82.3175 59.3815,83.2045 C59.3815,83.2045 57.45275,81.46975 57.1195,80.362 C57.1195,80.362 56.5915,80.67875 57.03525,81.48675 C57.035,81.487 52.56725,79.0365 50.556,74.60675 Z" id="Shape" fill=""></path>
                <path d="M50.556,74.60675 C50.556,74.60675 54.542,60.129 69.55825,64.12825 C69.55825,64.12825 67.73075,65.35375 66.31375,65.548 C66.31375,65.548 66.9555,66.14475 67.8215,66.1215 C67.8215,66.1215 66.096,67.06575 64.52975,66.97625 C64.52975,66.97625 65,67.38425 65.8605,67.3845 C65.8605,67.3845 64.272,68.43525 63.2255,68.54125 C63.2255,68.54125 63.57375,68.89575 64.252,68.7545 C64.252,68.7545 62.68025,69.73175 60.91775,69.561 C60.91775,69.561 61.174,70.082 62.078,70.242 C62.078,70.242 59.69075,71.25675 58.54575,71.09075 C58.54575,71.09075 58.6095,71.70325 59.5295,71.6425 C59.52975,71.64225 55.42075,74.656 50.556,74.60675 Z" id="Shape" fill=""></path>
                <path d="M99.5645,54 L95.5645,54 C95.5645,75.09575 102.10275,90.8125 115.49575,101.9965 C116.2905,100.92125 117.04375,99.81425 117.77125,98.689 C105.536,88.31325 99.5645,73.674 99.5645,54 Z" id="Shape" fill="url(#linearGradient-7)"></path>
                <path d="M97.09425,53.4155 C97.09425,53.4155 82.49025,59.57725 88.69525,74.60725 C88.69525,74.60725 89.73075,72.5385 89.74275,71.0405 C89.74275,71.0405 90.4535,71.623 90.54575,72.5255 C90.54575,72.5255 91.301,70.6025 90.99675,68.98875 C90.99675,68.98875 91.4865,69.42025 91.60275,70.3135 C91.60275,70.3135 92.4875,68.517 92.45725,67.416 C92.45725,67.416 92.875,67.72775 92.8185,68.452 C92.8185,68.452 93.629,66.6835 93.213,64.87775 C93.213,64.87775 93.79225,65.07075 94.08125,65.987 C94.08125,65.987 94.82125,63.36675 94.49325,62.2015 C94.49325,62.2015 95.14225,62.182 95.20275,63.1455 C95.20275,63.14575 97.80125,58.45875 97.09425,53.4155 Z" id="Shape" fill="url(#linearGradient-7)"></path>
                <path d="M97.09425,53.4155 C97.09425,53.4155 112.8,55.556 110.7285,71.68425 C110.7285,71.68425 109.1895,69.95725 108.78725,68.51425 C108.78725,68.51425 108.253,69.262 108.39925,70.15725 C108.39925,70.15725 107.16875,68.49775 107.04175,66.86025 C107.04175,66.86025 106.6815,67.40475 106.8025,68.2975 C106.8025,68.2975 105.47975,66.794 105.222,65.723 C105.222,65.723 104.89975,66.13325 105.1435,66.8175 C105.1435,66.8175 103.9,65.3215 103.8305,63.46975 C103.8305,63.46975 103.32175,63.807 103.28175,64.767 C103.28175,64.767 101.884,62.43025 101.89675,61.22 C101.89675,61.22 101.265,61.3705 101.458,62.3165 C101.45775,62.316 97.727,58.4685 97.09425,53.4155 Z" id="Shape" stroke="#9D9D9D"></path>
                <path d="M97.09425,53.4155 C97.09425,53.4155 91.77975,37.73525 76.74625,42.785 C76.74625,42.785 78.7215,44.04575 80.189,44.19525 C80.189,44.19525 79.583,44.8775 78.69425,44.89075 C78.69425,44.89075 80.54125,45.84825 82.13725,45.6805 C82.13725,45.6805 81.69025,46.148 80.80925,46.187 C80.80925,46.187 82.52525,47.26675 83.606,47.33625 C83.606,47.33625 83.27975,47.74 82.573,47.6155 C82.573,47.6155 84.26525,48.616 86.0555,48.35025 C86.0555,48.35025 85.838,48.9325 84.9255,49.148 C84.9255,49.148 87.456,50.153 88.6145,49.92025 C88.6145,49.92025 88.60125,50.59375 87.65425,50.56825 C87.654,50.56825 92.11775,53.686 97.09425,53.4155 Z" id="Shape" fill="url(#linearGradient-7)"></path>
                <path d="M97.09425,53.4155 C97.09425,53.4155 80.74825,46.1025 73.03875,62.95425 C73.03875,62.95425 75.5525,62.20175 76.806,61.04525 C76.806,61.04525 76.8685,62.0885 76.19025,62.868 C76.19025,62.868 78.368,61.9965 79.47375,60.48725 C79.47375,60.48725 79.49225,61.22925 78.83975,62.0215 C78.83975,62.0215 81.01175,61.3565 81.90275,60.47375 C81.90275,60.47375 81.965,61.063 81.32025,61.58 C81.32025,61.58 83.41175,60.875 84.5915,59.1235 C84.5915,59.1235 84.87675,59.75425 84.338,60.70775 C84.338,60.70775 87.0825,59.28075 87.79825,58.101 C87.79825,58.101 88.31325,58.62425 87.55975,59.42475 C87.56,59.425 93.44975,57.92925 97.09425,53.4155 Z" id="Shape" fill="url(#linearGradient-7)"></path>
                <path d="M97.09425,53.4155 C97.09425,53.4155 110.968,42.093 122.80475,56.35175 C122.80475,56.35175 120.18175,56.281 118.67025,55.4915 C118.67025,55.4915 118.88175,56.51475 119.74,57.0905 C119.74,57.0905 117.41025,56.81675 115.94925,55.64825 C115.94925,55.64825 116.125,56.36975 116.9615,56.96425 C116.9615,56.96425 114.69125,56.88875 113.60075,56.26875 C113.60075,56.26875 113.6945,56.854 114.45175,57.185 C114.45175,57.185 112.24875,57.04975 110.653,55.66625 C110.653,55.66625 110.54225,56.34975 111.31075,57.1295 C111.31075,57.1295 108.289,56.4675 107.2905,55.5155 C107.2905,55.5155 106.92975,56.155 107.86575,56.73125 C107.866,56.73075 101.78975,56.823 97.09425,53.4155 Z" id="Shape" fill="url(#linearGradient-7)"></path>
                <path d="M97.09425,53.4155 C97.09425,53.4155 92.696,36.05675 110.621,31.3545 C110.621,31.3545 109.4485,33.702 108.09375,34.73825 C108.09375,34.73825 109.11075,34.979 109.995,34.4445 C109.995,34.4445 108.76225,36.44025 107.086,37.27025 C107.086,37.27025 107.814,37.41625 108.70625,36.90925 C108.70625,36.90925 107.6785,38.93475 106.65575,39.66125 C106.65575,39.66125 107.2255,39.8235 107.84575,39.27725 C107.84575,39.27725 106.79225,41.21675 104.864,42.078 C104.864,42.078 105.4365,42.46725 106.468,42.1005 C106.468,42.1005 104.591,44.55925 103.30625,45.06175 C103.30625,45.06175 103.73325,45.659 104.65125,45.054 C104.6515,45.05425 102.167,50.6 97.09425,53.4155 Z" id="Shape" fill="url(#linearGradient-7)"></path>
                <path d="M16.1305,90.36775 C12.58625,83.2005 8.009,83.45825 2.9085,83.033 C11.01125,109.08075 35.28525,128 64,128 C76.552,128 88.2455,124.36725 98.12325,118.1205 C94.92375,117.654 91.33325,116.6665 85.0665,119.35625 C81.93175,120.70175 77.56175,114.85525 74.66775,114.5 C66.52575,113.5 57.6665,119.8125 52.382,115.5 C45.605,109.96975 42.75,115 37.30125,112.62475 C31.8525,110.24975 34.74,105.81175 32.5545,103.4445 C29.06625,99.66675 21.33325,100.88925 16.1305,90.36775 Z" id="Shape" fill="url(#linearGradient-8)"></path>
                <circle id="Oval-path" stroke="url(#linearGradient-1)" cx="64" cy="64" r="64"></circle>
            </g>
            <g id="Group" transform="translate(620.000000, 278.000000)">
                <path d="M41.396,10.38 L41.144,11.244 L38.048,11.244 C37.5439975,11.244 37.0760022,11.4179983 36.644,11.766 C36.2119978,12.1140017 35.9360006,12.5279976 35.816,13.008 L34.628,17.472 C34.3639987,18.4320048 33.7940044,19.2599965 32.918,19.956 C32.0419956,20.6520035 31.1120049,21 30.128,21 L24.368,21 C23.4559954,21 23,20.5680043 23,19.704 C23,19.5599993 23.0239998,19.4040008 23.072,19.236 L28.184,0.192 L31.28,0.192 L26.636,17.472 C26.5879998,17.6400008 26.564,17.7959993 26.564,17.94 C26.564,18.8040043 27.0199954,19.236 27.932,19.236 L28.832,19.236 C29.3120024,19.236 29.7739978,19.0620017 30.218,18.714 C30.6620022,18.3659983 30.9439994,17.9520024 31.064,17.472 L31.064,17.4 L31.532,15.672 C30.931997,15.672 30.4400019,15.4920018 30.056,15.132 C29.6719981,14.7719982 29.48,14.292003 29.48,13.692 C29.48,12.8279957 29.8459963,12.0600034 30.578,11.388 C31.3100037,10.7159966 32.1079957,10.38 32.972,10.38 L33.872,10.38 C34.6880041,10.38 35.2639983,10.679997 35.6,11.28 C36.1280026,10.679997 36.7279966,10.38 37.4,10.38 L41.396,10.38 Z M32.936,13.584 C32.936,13.1999981 32.7080023,13.008 32.252,13.008 C31.9639986,13.008 31.7000012,13.1279988 31.46,13.368 C31.2199988,13.6080012 31.1,13.8719986 31.1,14.16 C31.1,14.5920022 31.3279977,14.808 31.784,14.808 C32.5520038,14.808 32.936,14.4000041 32.936,13.584 Z M52.448,19.236 C52.3279994,19.7160024 52.0460022,20.1299983 51.602,20.478 C51.1579978,20.8260017 50.6960024,21 50.216,21 L38.624,21 C37.7119954,21 37.256,20.5680043 37.256,19.704 C37.256,19.5599993 37.2799998,19.4040008 37.328,19.236 L37.328,19.2 L39.2,12.18 C39.2,12.1559999 39.2119999,12.144 39.236,12.144 C39.3560006,11.6639976 39.6379978,11.2500017 40.082,10.902 C40.5260022,10.5539983 40.9879976,10.38 41.468,10.38 L48.992,10.38 C49.9040046,10.38 50.36,10.8239956 50.36,11.712 C50.36,11.8560007 50.3360002,11.9999993 50.288,12.144 L50.288,12.18 L49.46,15.204 C49.3639995,15.5160016 49.1600016,15.672 48.848,15.672 L42.26,15.672 L42.476,14.808 L46.472,14.808 L46.94,13.008 C46.9880002,12.815999 47.012,12.6600006 47.012,12.54 C47.012,11.6759957 46.5560046,11.244 45.644,11.244 L44.312,11.244 C43.8079975,11.244 43.3400022,11.4179983 42.908,11.766 C42.4759978,12.1140017 42.2000006,12.5279976 42.08,13.008 L40.892,17.472 C40.8439998,17.664001 40.82,17.8199994 40.82,17.94 C40.82,18.8040043 41.2759954,19.236 42.188,19.236 L52.448,19.236 Z M57.236,9.912 C57.3800007,9.33599712 57.1640029,9.048 56.588,9.048 C55.9639969,9.048 55.5800007,9.33599712 55.436,9.912 C55.2919993,10.512003 55.5079971,10.812 56.084,10.812 C56.7080031,10.812 57.0919993,10.512003 57.236,9.912 Z M60.908,15.888 C60.8839999,15.6719989 60.4040047,15.2280034 59.468,14.556 C58.9879976,14.2199983 58.3760037,13.8960016 57.632,13.584 C57.3199984,14.3040036 56.768004,15.3839928 55.976,16.824 C55.5199977,17.7120044 54.8000049,18.8759928 53.816,20.316 C53.5279986,20.6280016 53.2220016,20.8199996 52.898,20.892 C52.5739984,20.9640004 51.9560046,21 51.044,21 L49.856,21 C48.9439954,21 48.488,20.5680043 48.488,19.704 C48.488,19.5599993 48.5119998,19.4040008 48.56,19.236 L49.28,19.236 C50.0960041,19.236 50.7199978,19.140001 51.152,18.948 C51.8480035,18.6359984 52.4719972,18.0000048 53.024,17.04 C53.1680007,16.7759987 53.7559948,15.5760107 54.788,13.44 C53.587994,13.3439995 52.988,12.696006 52.988,11.496 C52.988,10.6319957 53.3479964,9.85800342 54.068,9.174 C54.7880036,8.48999658 55.5799957,8.148 56.444,8.148 C57.044003,8.148 57.5359981,8.3279982 57.92,8.688 C58.3040019,9.0480018 58.496,9.527997 58.496,10.128 C58.496,10.6080024 58.4600004,10.9319992 58.388,11.1 C59.6600064,11.5320022 60.895994,12.2639948 62.096,13.296 C63.2240056,14.304005 63.7760001,15.0719974 63.752,15.6 C63.7279999,16.1760029 63.4640025,16.8479962 62.96,17.616 C62.4559975,18.3840038 61.9520025,18.9239984 61.448,19.236 L65.984,19.236 C65.8399993,19.7160024 65.5460022,20.1299983 65.102,20.478 C64.6579978,20.8260017 64.1960024,21 63.716,21 L58.784,21 C58.2799975,21 57.824002,20.8440016 57.416,20.532 C56.9359976,20.1719982 56.7559994,19.6800031 56.876,19.056 C57.8360048,19.0800001 58.7839953,18.6240047 59.72,17.688 C60.5360041,16.8719959 60.9320001,16.2720019 60.908,15.888 Z M74.48,10.38 L74.228,11.136 L70.34,11.136 L68.684,17.472 C68.6359998,17.664001 68.612,17.8199994 68.612,17.94 C68.612,18.8040043 69.0679954,19.236 69.98,19.236 L74.768,19.236 C74.6239993,19.7160024 74.3300022,20.1299983 73.886,20.478 C73.4419978,20.8260017 72.9800024,21 72.5,21 L66.488,21 C65.5519953,21 65.084,20.5680043 65.084,19.704 C65.084,19.5839994 65.1079998,19.428001 65.156,19.236 L67.316,11.136 L65.012,11.136 L65.264,10.38 L67.532,10.38 L70.268,0.192 L73.328,0.192 L70.592,10.38 L74.48,10.38 Z M98.132,10.38 L97.88,11.244 L94.784,11.244 C94.2799975,11.244 93.8120022,11.4179983 93.38,11.766 C92.9479978,12.1140017 92.6720006,12.5279976 92.552,13.008 L91.364,17.472 C91.0999987,18.4320048 90.5300044,19.2599965 89.654,19.956 C88.7779956,20.6520035 87.8480049,21 86.864,21 L81.104,21 C80.1919954,21 79.736,20.5680043 79.736,19.704 C79.736,19.5599993 79.7599998,19.4040008 79.808,19.236 L84.92,0.192 L88.016,0.192 L83.372,17.472 C83.3239998,17.6400008 83.3,17.7959993 83.3,17.94 C83.3,18.8040043 83.7559954,19.236 84.668,19.236 L85.568,19.236 C86.0480024,19.236 86.5099978,19.0620017 86.954,18.714 C87.3980022,18.3659983 87.6799994,17.9520024 87.8,17.472 L87.8,17.4 L88.268,15.672 C87.667997,15.672 87.1760019,15.4920018 86.792,15.132 C86.4079981,14.7719982 86.216,14.292003 86.216,13.692 C86.216,12.8279957 86.5819963,12.0600034 87.314,11.388 C88.0460037,10.7159966 88.8439957,10.38 89.708,10.38 L90.608,10.38 C91.4240041,10.38 91.9999983,10.679997 92.336,11.28 C92.8640026,10.679997 93.4639966,10.38 94.136,10.38 L98.132,10.38 Z M89.672,13.584 C89.672,13.1999981 89.4440023,13.008 88.988,13.008 C88.6999986,13.008 88.4360012,13.1279988 88.196,13.368 C87.9559988,13.6080012 87.836,13.8719986 87.836,14.16 C87.836,14.5920022 88.0639977,14.808 88.52,14.808 C89.2880038,14.808 89.672,14.4000041 89.672,13.584 Z M109.184,19.236 C109.063999,19.7160024 108.782002,20.1299983 108.338,20.478 C107.893998,20.8260017 107.432002,21 106.952,21 L95.36,21 C94.4479954,21 93.992,20.5680043 93.992,19.704 C93.992,19.5599993 94.0159998,19.4040008 94.064,19.236 L94.064,19.2 L95.936,12.18 C95.936,12.1559999 95.9479999,12.144 95.972,12.144 C96.0920006,11.6639976 96.3739978,11.2500017 96.818,10.902 C97.2620022,10.5539983 97.7239976,10.38 98.204,10.38 L105.728,10.38 C106.640005,10.38 107.096,10.8239956 107.096,11.712 C107.096,11.8560007 107.072,11.9999993 107.024,12.144 L107.024,12.18 L106.196,15.204 C106.1,15.5160016 105.896002,15.672 105.584,15.672 L98.996,15.672 L99.212,14.808 L103.208,14.808 L103.676,13.008 C103.724,12.815999 103.748,12.6600006 103.748,12.54 C103.748,11.6759957 103.292005,11.244 102.38,11.244 L101.048,11.244 C100.543997,11.244 100.076002,11.4179983 99.644,11.766 C99.2119978,12.1140017 98.9360006,12.5279976 98.816,13.008 L97.628,17.472 C97.5799998,17.664001 97.556,17.8199994 97.556,17.94 C97.556,18.8040043 98.0119954,19.236 98.924,19.236 L109.184,19.236 Z M123.332,19.236 C123.211999,19.7160024 122.930002,20.1299983 122.486,20.478 C122.041998,20.8260017 121.580002,21 121.1,21 L116.672,21 C115.759995,21 115.304,20.5560044 115.304,19.668 C115.304,19.5239993 115.328,19.3800007 115.376,19.236 C115.255999,19.7160024 114.974002,20.1299983 114.53,20.478 C114.085998,20.8260017 113.624002,21 113.144,21 L109.148,21 C108.235995,21 107.78,20.5680043 107.78,19.704 C107.78,19.5599993 107.804,19.4040008 107.852,19.236 L107.852,19.2 L109.508,13.008 C109.700001,12.2879964 110.125997,11.6700026 110.786,11.154 C111.446003,10.6379974 112.147996,10.38 112.892,10.38 L120.848,10.38 L118.94,17.472 C118.892,17.6400008 118.868,17.7959993 118.868,17.94 C118.868,18.8040043 119.323995,19.236 120.236,19.236 L123.332,19.236 Z M117.5,11.244 L114.836,11.244 C114.355998,11.244 113.894002,11.4179983 113.45,11.766 C113.005998,12.1140017 112.724001,12.5279976 112.604,13.008 L112.604,13.08 L111.416,17.472 C111.368,17.6400008 111.344,17.7959993 111.344,17.94 C111.344,18.8040043 111.799995,19.236 112.712,19.236 L113.612,19.236 C114.116003,19.236 114.583998,19.0620017 115.016,18.714 C115.448002,18.3659983 115.723999,17.9520024 115.844,17.472 L117.5,11.244 Z M137.552,19.236 C137.431999,19.7160024 137.150002,20.1299983 136.706,20.478 C136.261998,20.8260017 135.800002,21 135.32,21 L123.728,21 C122.815995,21 122.36,20.5680043 122.36,19.704 C122.36,19.5599993 122.384,19.4040008 122.432,19.236 L122.432,19.2 L124.088,13.008 C124.280001,12.2879964 124.705997,11.6700026 125.366,11.154 C126.026003,10.6379974 126.727996,10.38 127.472,10.38 L132.764,10.38 L132.764,10.416 C132.86,10.3919999 133.015999,10.38 133.232,10.38 C133.808003,10.38 134.293998,10.5599982 134.69,10.92 C135.086002,11.2800018 135.284,11.7479971 135.284,12.324 C135.284,13.1880043 134.924004,13.9619966 134.204,14.646 C133.483996,15.3300034 132.680004,15.672 131.792,15.672 C131.191997,15.672 130.700002,15.4920018 130.316,15.132 C129.931998,14.7719982 129.74,14.292003 129.74,13.692 C129.74,12.7799954 130.159996,11.9640036 131,11.244 L129.416,11.244 C128.935998,11.244 128.474002,11.4179983 128.03,11.766 C127.585998,12.1140017 127.304001,12.5279976 127.184,13.008 L127.184,13.08 L125.996,17.472 C125.948,17.6400008 125.924,17.7959993 125.924,17.94 C125.924,18.8040043 126.379995,19.236 127.292,19.236 L137.552,19.236 Z M151.304,19.236 C151.183999,19.7160024 150.902002,20.1299983 150.458,20.478 C150.013998,20.8260017 149.552002,21 149.072,21 L144.644,21 C143.731995,21 143.276,20.5680043 143.276,19.704 C143.276,19.5839994 143.3,19.428001 143.348,19.236 L145.148,12.468 L139.46,19.92 C139.436,19.9680002 139.376,20.0279996 139.28,20.1 C138.799998,20.700003 138.212003,21 137.516,21 C136.603995,21 136.148,20.5680043 136.148,19.704 C136.148,19.5359992 136.172,19.3800007 136.22,19.236 L141.296,0.372 L144.428,0.372 L140.216,16.068 L143.312,11.712 C143.960003,10.7999954 144.679996,10.344 145.472,10.344 L145.724,10.38 L147.056,10.344 C147.968005,10.3199999 148.424,10.7519956 148.424,11.64 C148.424,11.8080008 148.4,11.9759992 148.352,12.144 L148.1,13.008 L146.912,17.436 C146.864,17.6040008 146.84,17.7599993 146.84,17.904 C146.84,18.7920044 147.295995,19.236 148.208,19.236 L151.304,19.236 Z M165.596,19.236 C165.475999,19.7160024 165.194002,20.1299983 164.75,20.478 C164.305998,20.8260017 163.844002,21 163.364,21 L151.772,21 C150.859995,21 150.404,20.5680043 150.404,19.704 C150.404,19.5599993 150.428,19.4040008 150.476,19.236 L150.476,19.2 L152.348,12.18 C152.348,12.1559999 152.36,12.144 152.384,12.144 C152.504001,11.6639976 152.785998,11.2500017 153.23,10.902 C153.674002,10.5539983 154.135998,10.38 154.616,10.38 L162.14,10.38 C163.052005,10.38 163.508,10.8239956 163.508,11.712 C163.508,11.8560007 163.484,11.9999993 163.436,12.144 L163.436,12.18 L162.608,15.204 C162.512,15.5160016 162.308002,15.672 161.996,15.672 L155.408,15.672 L155.624,14.808 L159.62,14.808 L160.088,13.008 C160.136,12.815999 160.16,12.6600006 160.16,12.54 C160.16,11.6759957 159.704005,11.244 158.792,11.244 L157.46,11.244 C156.955997,11.244 156.488002,11.4179983 156.056,11.766 C155.623998,12.1140017 155.348001,12.5279976 155.228,13.008 L154.04,17.472 C153.992,17.664001 153.968,17.8199994 153.968,17.94 C153.968,18.8040043 154.423995,19.236 155.336,19.236 L165.596,19.236 Z M170.384,9.912 C170.528001,9.33599712 170.312003,9.048 169.736,9.048 C169.111997,9.048 168.728001,9.33599712 168.584,9.912 C168.439999,10.512003 168.655997,10.812 169.232,10.812 C169.856003,10.812 170.239999,10.512003 170.384,9.912 Z M174.056,15.888 C174.032,15.6719989 173.552005,15.2280034 172.616,14.556 C172.135998,14.2199983 171.524004,13.8960016 170.78,13.584 C170.467998,14.3040036 169.916004,15.3839928 169.124,16.824 C168.667998,17.7120044 167.948005,18.8759928 166.964,20.316 C166.675999,20.6280016 166.370002,20.8199996 166.046,20.892 C165.721998,20.9640004 165.104005,21 164.192,21 L163.004,21 C162.091995,21 161.636,20.5680043 161.636,19.704 C161.636,19.5599993 161.66,19.4040008 161.708,19.236 L162.428,19.236 C163.244004,19.236 163.867998,19.140001 164.3,18.948 C164.996003,18.6359984 165.619997,18.0000048 166.172,17.04 C166.316001,16.7759987 166.903995,15.5760107 167.936,13.44 C166.735994,13.3439995 166.136,12.696006 166.136,11.496 C166.136,10.6319957 166.495996,9.85800342 167.216,9.174 C167.936004,8.48999658 168.727996,8.148 169.592,8.148 C170.192003,8.148 170.683998,8.3279982 171.068,8.688 C171.452002,9.0480018 171.644,9.527997 171.644,10.128 C171.644,10.6080024 171.608,10.9319992 171.536,11.1 C172.808006,11.5320022 174.043994,12.2639948 175.244,13.296 C176.372006,14.304005 176.924,15.0719974 176.9,15.6 C176.876,16.1760029 176.612003,16.8479962 176.108,17.616 C175.603997,18.3840038 175.100003,18.9239984 174.596,19.236 L179.132,19.236 C178.987999,19.7160024 178.694002,20.1299983 178.25,20.478 C177.805998,20.8260017 177.344002,21 176.864,21 L171.932,21 C171.427997,21 170.972002,20.8440016 170.564,20.532 C170.083998,20.1719982 169.903999,19.6800031 170.024,19.056 C170.984005,19.0800001 171.931995,18.6240047 172.868,17.688 C173.684004,16.8719959 174.08,16.2720019 174.056,15.888 Z" id="best-beaches" fill="url(#linearGradient-6)"></path>
                <path d="M94.148,27.248 C93.1159948,27.248 92.6,26.7680048 92.6,25.808 C92.6,25.1599968 92.8759972,24.5780026 93.428,24.062 C93.9800028,23.5459974 94.5799968,23.288 95.228,23.288 C96.236005,23.288 96.74,23.7799951 96.74,24.764 C96.74,25.4120032 96.4700027,25.9879975 95.93,26.492 C95.3899973,26.9960025 94.7960032,27.248 94.148,27.248 Z M97.352,39.236 C97.2319994,39.7160024 96.9500022,40.1299983 96.506,40.478 C96.0619978,40.8260017 95.6000024,41 95.12,41 L90.692,41 C89.7799954,41 89.324,40.5680043 89.324,39.704 C89.324,39.5599993 89.3479998,39.4040008 89.396,39.236 L91.772,30.38 L94.868,30.38 L92.96,37.472 C92.9119998,37.6400008 92.888,37.7959993 92.888,37.94 C92.888,38.8040043 93.3439954,39.236 94.256,39.236 L97.352,39.236 Z M111.752,39.236 C111.631999,39.7160024 111.350002,40.1299983 110.906,40.478 C110.461998,40.8260017 110.000002,41 109.52,41 L105.524,41 C104.611995,41 104.156,40.5560044 104.156,39.668 C104.156,39.5239993 104.18,39.3800007 104.228,39.236 L104.228,39.2 L105.992,32.576 L99.728,40.1 C99.2239975,40.700003 98.576004,41 97.784,41 C96.8239952,41 96.344,40.5680043 96.344,39.704 C96.344,39.5599993 96.3679998,39.4040008 96.416,39.236 L96.344,39.236 L98.72,30.38 L101.924,30.38 L100.232,36.68 L104.084,31.712 C104.852004,30.7279951 105.631996,30.2839995 106.424,30.38 L107.936,30.38 C108.848005,30.38 109.304,30.8119957 109.304,31.676 C109.304,31.8200007 109.28,31.9759992 109.232,32.144 L107.792,37.472 C107.744,37.6400008 107.72,37.7959993 107.72,37.94 C107.72,38.8040043 108.175995,39.236 109.088,39.236 L111.752,39.236 Z" id="in" fill="url(#linearGradient-9)"></path>
                <path d="M28.32,60.8 L27.84,60.8 L27.84,48.32 L28.32,48.32 L28.32,60.8 Z M26.88,60.8 L25.92,60.8 L25.92,48.32 L26.88,48.32 L26.88,60.8 Z M24.96,60.8 L23.52,60.8 L23.52,48.32 L24.96,48.32 L24.96,60.8 Z M22.56,60.8 L20.64,60.8 L20.64,48.32 L22.56,48.32 L22.56,60.8 Z M19.68,60.8 L17.28,60.8 L17.28,48.32 L19.68,48.32 L19.68,60.8 Z M28.32,80 L27.84,80 L27.84,63.2 L28.32,63.2 L28.32,80 Z M26.88,80 L25.92,80 L25.92,63.2 L26.88,63.2 L26.88,80 Z M24.96,80 L23.52,80 L23.52,63.2 L24.96,63.2 L24.96,80 Z M22.56,80 L20.64,80 L20.64,67.52 L22.56,67.52 L22.56,80 Z M19.68,80 L17.28,80 L17.28,67.52 L19.68,67.52 L19.68,80 Z M16.32,80 C11.9359781,80 8.20001544,78.4560154 5.112,75.368 C2.02398456,72.2799846 0.48,68.5440219 0.48,64.16 C0.48,59.7759781 2.02398456,56.0400154 5.112,52.952 C8.20001544,49.8639846 11.9359781,48.32 16.32,48.32 L16.32,80 Z M59.04,64.16 L43.2,64.16 L43.2,48.32 C47.5840219,48.32 51.3199846,49.8639846 54.408,52.952 C57.4960154,56.0400154 59.04,59.7759781 59.04,64.16 Z M59.04,80 L58.08,80 L43.2,65.12 L59.04,65.12 L59.04,80 Z M42.24,80 L39.84,80 L39.84,48.32 L42.24,48.32 L42.24,80 Z M38.88,80 L36.96,80 L36.96,48.32 L38.88,48.32 L38.88,80 Z M36,80 L34.56,80 L34.56,48.32 L36,48.32 L36,80 Z M33.6,80 L32.64,80 L32.64,48.32 L33.6,48.32 L33.6,80 Z M31.68,80 L31.2,80 L31.2,48.32 L31.68,48.32 L31.68,80 Z M85.92,57.92 L73.92,57.92 L73.92,48.32 L85.92,48.32 L85.92,57.92 Z M83.52,68.96 L73.92,68.96 L73.92,59.36 L83.52,59.36 L83.52,68.96 Z M72.96,80 L70.56,80 L70.56,48.32 L72.96,48.32 L72.96,80 Z M85.92,80 L73.92,80 L73.92,70.4 L85.92,70.4 L85.92,80 Z M69.6,80 L67.68,80 L67.68,48.32 L69.6,48.32 L69.6,80 Z M66.72,80 L65.28,80 L65.28,48.32 L66.72,48.32 L66.72,80 Z M64.32,80 L63.36,80 L63.36,48.32 L64.32,48.32 L64.32,80 Z M62.4,80 L61.92,80 L61.92,48.32 L62.4,48.32 L62.4,80 Z M112.8,57.92 L100.8,57.92 L100.8,48.32 L112.8,48.32 L112.8,57.92 Z M110.4,68.96 L100.8,68.96 L100.8,59.36 L110.4,59.36 L110.4,68.96 Z M99.84,80 L97.44,80 L97.44,48.32 L99.84,48.32 L99.84,80 Z M112.8,80 L100.8,80 L100.8,70.4 L112.8,70.4 L112.8,80 Z M96.48,80 L94.56,80 L94.56,48.32 L96.48,48.32 L96.48,80 Z M93.6,80 L92.16,80 L92.16,48.32 L93.6,48.32 L93.6,80 Z M91.2,80 L90.24,80 L90.24,48.32 L91.2,48.32 L91.2,80 Z M89.28,80 L88.8,80 L88.8,48.32 L89.28,48.32 L89.28,80 Z M143.52,80 L143.04,80 L143.04,48.32 L143.52,48.32 L143.52,80 Z M142.08,80 L141.12,80 L141.12,48.32 L142.08,48.32 L142.08,80 Z M140.16,80 L138.72,80 L138.72,48.32 L140.16,48.32 L140.16,80 Z M137.76,80 L135.84,80 L135.84,48.32 L137.76,48.32 L137.76,80 Z M134.88,80 L132.48,80 L132.48,48.32 L134.88,48.32 L134.88,80 Z M131.52,80 C127.135978,80 123.400015,78.4560154 120.312,75.368 C117.223985,72.2799846 115.68,68.5440219 115.68,64.16 C115.68,59.7759781 117.223985,56.0400154 120.312,52.952 C123.400015,49.8639846 127.135978,48.32 131.52,48.32 L131.52,80 Z M170.4,57.92 L158.4,57.92 L158.4,48.32 L170.4,48.32 L170.4,57.92 Z M168,68.96 L158.4,68.96 L158.4,59.36 L168,59.36 L168,68.96 Z M157.44,80 L155.04,80 L155.04,48.32 L157.44,48.32 L157.44,80 Z M170.4,80 L158.4,80 L158.4,70.4 L170.4,70.4 L170.4,80 Z M154.08,80 L152.16,80 L152.16,48.32 L154.08,48.32 L154.08,80 Z M151.2,80 L149.76,80 L149.76,48.32 L151.2,48.32 L151.2,80 Z M148.8,80 L147.84,80 L147.84,48.32 L148.8,48.32 L148.8,80 Z M146.88,80 L146.4,80 L146.4,48.32 L146.88,48.32 L146.88,80 Z M197.28,57.92 L185.28,57.92 L185.28,48.32 L197.28,48.32 L197.28,57.92 Z M194.88,68.96 L185.28,68.96 L185.28,59.36 L194.88,59.36 L194.88,68.96 Z M184.32,80 L181.92,80 L181.92,48.32 L184.32,48.32 L184.32,80 Z M197.28,80 L185.28,80 L185.28,70.4 L197.28,70.4 L197.28,80 Z M180.96,80 L179.04,80 L179.04,48.32 L180.96,48.32 L180.96,80 Z M178.08,80 L176.64,80 L176.64,48.32 L178.08,48.32 L178.08,80 Z M175.68,80 L174.72,80 L174.72,48.32 L175.68,48.32 L175.68,80 Z M173.76,80 L173.28,80 L173.28,48.32 L173.76,48.32 L173.76,80 Z" id="GREECEE" fill="url(#linearGradient-6)"></path>
            </g>
        </g>
    </g>
</svg>